<svg width="160" height="28" viewBox="0 0 160 28" fill="none" xmlns="http://www.w3.org/2000/svg">
<path d="M38.6758 4.9375V22H35.7344V4.9375H38.6758ZM48.9297 4.9375L42.0156 13.1523L38.0781 17.3242L37.5625 14.4062L40.375 10.9375L45.3438 4.9375H48.9297ZM45.7656 22L40.1523 13.9141L42.1797 11.9102L49.2578 22H45.7656ZM50.8984 4.9375H56.9336C58.2305 4.9375 59.3359 5.13281 60.25 5.52344C61.1641 5.91406 61.8633 6.49219 62.3477 7.25781C62.8398 8.01562 63.0859 8.95312 63.0859 10.0703C63.0859 10.9219 62.9297 11.6719 62.6172 12.3203C62.3047 12.9688 61.8633 13.5156 61.293 13.9609C60.7227 14.3984 60.043 14.7383 59.2539 14.9805L58.3633 15.4141H52.9375L52.9141 13.082H56.9805C57.6836 13.082 58.2695 12.957 58.7383 12.707C59.207 12.457 59.5586 12.1172 59.793 11.6875C60.0352 11.25 60.1562 10.7578 60.1562 10.2109C60.1562 9.61719 60.0391 9.10156 59.8047 8.66406C59.5781 8.21875 59.2266 7.87891 58.75 7.64453C58.2734 7.40234 57.668 7.28125 56.9336 7.28125H53.8398V22H50.8984V4.9375ZM60.6367 22L56.6289 14.3359L59.7109 14.3242L63.7773 21.8477V22H60.6367ZM72.6602 7.21094L67.5625 22H64.4805L70.9023 4.9375H72.8711L72.6602 7.21094ZM76.9258 22L71.8164 7.21094L71.5938 4.9375H73.5742L80.0195 22H76.9258ZM76.6797 15.6719V18.0039H67.3984V15.6719H76.6797ZM87.4727 4.9375V22H84.5547V4.9375H87.4727ZM92.8281 4.9375V7.28125H79.2461V4.9375H92.8281ZM103.867 17.6055C103.867 17.2539 103.812 16.9414 103.703 16.668C103.602 16.3945 103.418 16.1445 103.152 15.918C102.887 15.6914 102.512 15.4727 102.027 15.2617C101.551 15.043 100.941 14.8203 100.199 14.5938C99.3867 14.3438 98.6367 14.0664 97.9492 13.7617C97.2695 13.4492 96.6758 13.0898 96.168 12.6836C95.6602 12.2695 95.2656 11.7969 94.9844 11.2656C94.7031 10.7266 94.5625 10.1055 94.5625 9.40234C94.5625 8.70703 94.707 8.07422 94.9961 7.50391C95.293 6.93359 95.7109 6.44141 96.25 6.02734C96.7969 5.60547 97.4414 5.28125 98.1836 5.05469C98.9258 4.82031 99.7461 4.70312 100.645 4.70312C101.91 4.70312 103 4.9375 103.914 5.40625C104.836 5.875 105.543 6.50391 106.035 7.29297C106.535 8.08203 106.785 8.95312 106.785 9.90625H103.867C103.867 9.34375 103.746 8.84766 103.504 8.41797C103.27 7.98047 102.91 7.63672 102.426 7.38672C101.949 7.13672 101.344 7.01172 100.609 7.01172C99.9141 7.01172 99.3359 7.11719 98.875 7.32812C98.4141 7.53906 98.0703 7.82422 97.8438 8.18359C97.6172 8.54297 97.5039 8.94922 97.5039 9.40234C97.5039 9.72266 97.5781 10.0156 97.7266 10.2812C97.875 10.5391 98.1016 10.7812 98.4062 11.0078C98.7109 11.2266 99.0938 11.4336 99.5547 11.6289C100.016 11.8242 100.559 12.0117 101.184 12.1914C102.129 12.4727 102.953 12.7852 103.656 13.1289C104.359 13.4648 104.945 13.8477 105.414 14.2773C105.883 14.707 106.234 15.1953 106.469 15.7422C106.703 16.2812 106.82 16.8945 106.82 17.582C106.82 18.3008 106.676 18.9492 106.387 19.5273C106.098 20.0977 105.684 20.5859 105.145 20.9922C104.613 21.3906 103.973 21.6992 103.223 21.918C102.48 22.1289 101.652 22.2344 100.738 22.2344C99.918 22.2344 99.1094 22.125 98.3125 21.9062C97.5234 21.6875 96.8047 21.3555 96.1562 20.9102C95.5078 20.457 94.9922 19.8945 94.6094 19.2227C94.2266 18.543 94.0352 17.75 94.0352 16.8438H96.9766C96.9766 17.3984 97.0703 17.8711 97.2578 18.2617C97.4531 18.6523 97.7227 18.9727 98.0664 19.2227C98.4102 19.4648 98.8086 19.6445 99.2617 19.7617C99.7227 19.8789 100.215 19.9375 100.738 19.9375C101.426 19.9375 102 19.8398 102.461 19.6445C102.93 19.4492 103.281 19.1758 103.516 18.8242C103.75 18.4727 103.867 18.0664 103.867 17.6055ZM112.562 4.9375V22H109.621V4.9375H112.562ZM123.074 7.21094L117.977 22H114.895L121.316 4.9375H123.285L123.074 7.21094ZM127.34 22L122.23 7.21094L122.008 4.9375H123.988L130.434 22H127.34ZM127.094 15.6719V18.0039H117.812V15.6719H127.094ZM132.18 20.5938C132.18 20.1562 132.328 19.7891 132.625 19.4922C132.922 19.1875 133.324 19.0352 133.832 19.0352C134.348 19.0352 134.75 19.1875 135.039 19.4922C135.336 19.7891 135.484 20.1562 135.484 20.5938C135.484 21.0312 135.336 21.3984 135.039 21.6953C134.75 21.9922 134.348 22.1406 133.832 22.1406C133.324 22.1406 132.922 21.9922 132.625 21.6953C132.328 21.3984 132.18 21.0312 132.18 20.5938ZM145.668 7.21094L140.57 22H137.488L143.91 4.9375H145.879L145.668 7.21094ZM149.934 22L144.824 7.21094L144.602 4.9375H146.582L153.027 22H149.934ZM149.688 15.6719V18.0039H140.406V15.6719H149.688ZM158.078 4.9375V22H155.137V4.9375H158.078Z" fill="white"/>
<path d="M24.75 12.482H20.0587L23.7037 8.91968L22.1175 7.35842L16.875 12.482H14.625V10.283L19.8675 5.15946L18.27 3.60919L14.625 7.1715V2.58667H12.375V7.1715L8.73 3.60919L7.1325 5.15946L12.375 10.283V12.482H10.125L4.8825 7.35842L3.29625 8.91968L6.94125 12.482H2.25V14.681H6.94125L3.29625 18.2433L4.8825 19.8045L10.125 14.681H12.375V16.8799L7.1325 22.0035L8.73 23.5538L12.375 19.9915V24.5763H14.625V19.9915L18.27 23.5538L19.8675 22.0035L14.625 16.8799V14.681H16.875L22.1175 19.8045L23.7037 18.2433L20.0587 14.681H24.75V12.482Z" fill="white"/>
</svg>
